<svg width="56" height="42" viewBox="0 0 56 42" fill="none" xmlns="http://www.w3.org/2000/svg">
<mask id="mask0_1_21" style="mask-type:luminance" maskUnits="userSpaceOnUse" x="0" y="0" width="56" height="42">
<path d="M56 0H0V42H56V0Z" fill="white"/>
</mask>
<g mask="url(#mask0_1_21)">
<path d="M7.42813 35.0916V36.9237H3.32217V37.506H7.34381V39.3381H3.32217V40.9215H1V35.0916H7.42813ZM13.3244 35.0916L16.0033 40.9215H13.5903L13.1363 39.9204H10.12L9.66598 40.9215H7.253L9.93192 35.0916H13.3244ZM10.8141 38.422H12.4422L11.6314 36.6489L10.8206 38.422H10.8141ZM23.8844 38.337C23.8001 39.1876 23.4304 39.8419 22.7687 40.2933C22.0812 40.7644 21.1276 41 19.8952 41C18.5784 41 17.573 40.7383 16.8855 40.2083C16.2109 39.6914 15.8736 38.9586 15.8736 38.0033C15.8736 37.048 16.2109 36.3152 16.8855 35.7983C17.573 35.2683 18.5784 35.0065 19.8952 35.0065C21.1276 35.0065 22.0876 35.2421 22.7687 35.7132C23.4304 36.1712 23.8001 36.819 23.8844 37.6696H21.5363C21.3676 37.1134 20.8228 36.8386 19.8952 36.8386C18.7665 36.8386 18.1957 37.2246 18.1957 38.0033C18.1957 38.7819 18.7601 39.1679 19.8952 39.1679C20.8228 39.1679 21.3741 38.8931 21.5363 38.337H23.8844ZM30.9806 35.0916V36.9237H28.6585V40.9215H26.3363V36.9237H24.0141V35.0916H30.9806ZM35.1385 35.0065C36.4553 35.0065 37.4607 35.2683 38.1482 35.7983C38.8228 36.3152 39.1601 37.048 39.1601 38.0033C39.1601 38.9586 38.8228 39.6914 38.1482 40.2083C37.4607 40.7383 36.4553 41 35.1385 41C33.8217 41 32.8163 40.7383 32.1288 40.2083C31.4542 39.6914 31.1169 38.9586 31.1169 38.0033C31.1169 37.048 31.4542 36.3152 32.1288 35.7983C32.8163 35.2683 33.8217 35.0065 35.1385 35.0065ZM35.1385 39.1745C36.2672 39.1745 36.838 38.7884 36.838 38.0098C36.838 37.2312 36.2736 36.8451 35.1385 36.8451C34.0034 36.8451 33.439 37.2312 33.439 38.0098C33.439 38.7884 34.0034 39.1745 35.1385 39.1745ZM42.1504 40.9215H39.8282V35.0916H43.9666C44.9461 35.0916 45.6983 35.2879 46.2173 35.6936C46.7232 36.0796 46.9762 36.6292 46.9762 37.3424C46.9762 38.2454 46.5805 38.8866 45.7827 39.2595L46.9762 40.928H44.5634L43.6099 39.5932H42.1569V40.928L42.1504 40.9215ZM42.1504 37.7546H44.0445C44.4466 37.7546 44.6542 37.6172 44.6542 37.3359C44.6542 37.0545 44.4531 36.9171 44.0445 36.9171H42.1504V37.7481V37.7546ZM51.1665 38.7099C49.6097 38.6641 48.5654 38.494 48.0205 38.193C47.5535 37.9444 47.3265 37.4929 47.3265 36.8451C47.3265 36.1974 47.5989 35.7655 48.1373 35.4776C48.7405 35.1636 49.7459 35 51.1665 35C52.587 35 53.5665 35.1832 54.1373 35.5496C54.6497 35.8702 54.9027 36.3937 54.9027 37.1265H52.5805C52.5805 36.9368 52.4832 36.819 52.2951 36.7601C52.1135 36.7012 51.7308 36.6685 51.16 36.6685C50.5373 36.6685 50.1286 36.6881 49.947 36.7339C49.8173 36.7666 49.7524 36.8321 49.7524 36.9367C49.7524 37.0414 49.8173 37.0938 49.947 37.1265C50.1157 37.1592 50.5178 37.1854 51.16 37.2116C52.7103 37.2704 53.7546 37.4471 54.293 37.7415C54.76 38.0033 55 38.4613 55 39.1091C55 39.7568 54.7276 40.2017 54.1892 40.5027C53.5795 40.8364 52.574 41 51.16 41C49.7459 41 48.734 40.8168 48.1308 40.4504C47.5859 40.1232 47.32 39.5998 47.32 38.8735H49.6421C49.6421 39.0632 49.733 39.1876 49.9211 39.2399C50.1027 39.2988 50.5178 39.3315 51.16 39.3315C51.8021 39.3315 52.1913 39.3119 52.373 39.2661C52.5092 39.2334 52.5805 39.1679 52.5805 39.0632C52.5805 38.952 52.5157 38.8735 52.3859 38.8277C52.1913 38.7623 51.7827 38.7165 51.16 38.7034L51.1665 38.7099Z" fill="#6FCCDC"/>
<path d="M34.8301 0.679688L36.3001 1.16969C38.0801 1.75969 39.6701 2.70969 40.9601 3.99969L39.4901 3.50969C38.2001 2.21969 36.6101 1.25969 34.8301 0.679688Z" fill="url(#paint0_linear_1_21)"/>
<path d="M39.4908 3.50977L40.9708 3.99977L28.5308 16.3598L27.0508 15.8698L39.4908 3.50977Z" fill="url(#paint1_linear_1_21)"/>
<path d="M20.7903 31.5598L19.3203 31.0698C20.4603 31.4498 21.7003 31.6698 23.0203 31.7298C26.8603 31.8898 30.9503 30.5698 34.4603 28.0298L35.9303 28.5198C32.4103 31.0598 28.3303 32.3798 24.4903 32.2198C23.1703 32.1698 21.9403 31.9398 20.7903 31.5598Z" fill="url(#paint2_linear_1_21)"/>
<path d="M31.0899 0.00987321C34.3999 0.149873 37.3499 1.36987 39.4899 3.50987L27.0499 15.8699L34.4499 28.0199C30.9299 30.5599 26.8499 31.8799 23.0099 31.7199C14.5499 31.3699 9.39986 23.9299 11.6199 15.2299C13.8399 6.52987 22.6299 -0.340127 31.0899 0.00987321Z" fill="url(#paint3_linear_1_21)"/>
<path d="M27.0508 15.8701L28.5308 16.3601L35.9308 28.5101L34.4608 28.0301L27.0508 15.8701Z" fill="url(#paint4_linear_1_21)"/>
<path d="M51.4898 13.0296L49.9898 12.5296C49.9898 12.1696 49.9698 11.8096 49.9398 11.4596C49.9298 11.3196 49.9198 11.1796 49.8998 11.0496C49.8898 10.9396 49.8798 10.8396 49.8598 10.7396C49.7598 9.99965 49.6098 9.28965 49.4098 8.60965C49.3798 8.49965 49.3498 8.39965 49.3098 8.28965C49.2298 8.03965 49.1398 7.80965 49.0498 7.56965C48.9798 7.39965 48.9098 7.22965 48.8398 7.06965C48.5898 6.49965 48.2998 5.95965 47.9798 5.45965C47.7698 5.12965 47.5498 4.80965 47.2998 4.50965C47.2398 4.42965 47.1798 4.35965 47.1198 4.27965C47.0798 4.22965 47.0398 4.18965 47.0098 4.13965L48.6098 4.75965C50.5698 6.65965 51.4498 9.19965 51.4698 13.0396L51.4898 13.0296Z" fill="#046076"/>
<path d="M51.4898 13.0296L35.2698 16.6496L33.7598 16.1496L49.9898 12.5396L51.4898 13.0296Z" fill="#148EAA"/>
<path d="M49.9898 12.5396L33.7598 16.1496L47.0198 4.13965C47.0198 4.13965 47.0998 4.22965 47.1398 4.27965C47.1998 4.35965 47.2598 4.42965 47.3198 4.50965C47.5598 4.81965 47.7898 5.13965 47.9998 5.45965C48.3198 5.96965 48.6098 6.50965 48.8598 7.06965C48.9298 7.22965 48.9998 7.39965 49.0698 7.56965C49.1598 7.80965 49.2498 8.03965 49.3298 8.28965C49.3698 8.39965 49.3998 8.49965 49.4298 8.60965C49.6298 9.28965 49.7798 10.0096 49.8798 10.7396C49.8898 10.8396 49.8998 10.9396 49.9198 11.0496C49.9298 11.1796 49.9398 11.3196 49.9598 11.4596C49.9898 11.8096 50.0098 12.1696 50.0098 12.5296L49.9898 12.5396Z" fill="url(#paint5_linear_1_21)"/>
<path opacity="0.53" d="M11.6193 15.24C10.1193 21.14 11.9993 26.46 16.0093 29.39C16.0193 29.33 21.3893 8.64996 21.4693 6.79996C21.5393 5.13996 19.7593 4.14996 19.3893 3.95996C15.6793 6.73996 12.7693 10.75 11.6193 15.25V15.24Z" fill="#045169"/>
<path d="M10.3691 1.17969L11.5291 1.23969C13.5691 1.34969 15.1791 2.98969 15.1691 5.01969L14.0091 4.95969C14.0091 2.92969 12.4091 1.28969 10.3691 1.17969Z" fill="#3991A6"/>
<path d="M14.0099 4.95996L15.1699 5.01996L15.0799 28.27L13.9199 28.21L14.0099 4.95996Z" fill="#3991A6"/>
<path d="M10.07 1.17978C12.25 1.12978 14.02 2.83978 14.01 4.95978L13.92 28.2098C13.92 30.3398 12.12 32.1198 9.95 32.1598C7.78 32.1998 6 30.5098 6 28.3798L6.09 5.12978C6.09 2.99978 7.89 1.22978 10.06 1.17978H10.07Z" fill="url(#paint6_linear_1_21)"/>
<path d="M10.8006 32.22L9.64062 32.16C9.74064 32.16 9.84062 32.16 9.95062 32.16C12.1306 32.11 13.9206 30.33 13.9206 28.21L15.0806 28.27C15.0806 30.4 13.2806 32.18 11.1106 32.22C11.0106 32.22 10.9006 32.22 10.8006 32.22Z" fill="#3991A6"/>
</g>
<defs>
<linearGradient id="paint0_linear_1_21" x1="34.8301" y1="2.33969" x2="40.9701" y2="2.33969" gradientUnits="userSpaceOnUse">
<stop stop-color="#007496"/>
<stop offset="0.26" stop-color="#007193"/>
<stop offset="0.45" stop-color="#006A8A"/>
<stop offset="0.61" stop-color="#015F7A"/>
<stop offset="0.75" stop-color="#024E64"/>
<stop offset="0.89" stop-color="#043949"/>
<stop offset="1" stop-color="#06232B"/>
</linearGradient>
<linearGradient id="paint1_linear_1_21" x1="27.0508" y1="9.93977" x2="7.00078" y2="9.93977" gradientUnits="userSpaceOnUse">
<stop stop-color="#007496"/>
<stop offset="0.26" stop-color="#007193"/>
<stop offset="0.45" stop-color="#006A8A"/>
<stop offset="0.61" stop-color="#015F7A"/>
<stop offset="0.75" stop-color="#024E64"/>
<stop offset="0.89" stop-color="#043949"/>
<stop offset="1" stop-color="#06232B"/>
</linearGradient>
<linearGradient id="paint2_linear_1_21" x1="19.3203" y1="30.1298" x2="35.9303" y2="30.1298" gradientUnits="userSpaceOnUse">
<stop stop-color="#007496"/>
<stop offset="0.26" stop-color="#007193"/>
<stop offset="0.45" stop-color="#006A8A"/>
<stop offset="0.61" stop-color="#015F7A"/>
<stop offset="0.75" stop-color="#024E64"/>
<stop offset="0.89" stop-color="#043949"/>
<stop offset="1" stop-color="#06232B"/>
</linearGradient>
<linearGradient id="paint3_linear_1_21" x1="11.5103" y1="23.1532" x2="42.0108" y2="8.89168" gradientUnits="userSpaceOnUse">
<stop stop-color="#007496"/>
<stop offset="0.26" stop-color="#007193"/>
<stop offset="0.45" stop-color="#006A8A"/>
<stop offset="0.61" stop-color="#015F7A"/>
<stop offset="0.75" stop-color="#024E64"/>
<stop offset="0.89" stop-color="#043949"/>
<stop offset="1" stop-color="#06232B"/>
</linearGradient>
<linearGradient id="paint4_linear_1_21" x1="27.0508" y1="22.1901" x2="35.9308" y2="22.1901" gradientUnits="userSpaceOnUse">
<stop stop-color="#007496"/>
<stop offset="0.26" stop-color="#007193"/>
<stop offset="0.45" stop-color="#006A8A"/>
<stop offset="0.61" stop-color="#015F7A"/>
<stop offset="0.75" stop-color="#024E64"/>
<stop offset="0.89" stop-color="#043949"/>
<stop offset="1" stop-color="#06232B"/>
</linearGradient>
<linearGradient id="paint5_linear_1_21" x1="40.0798" y1="9.82965" x2="46.3898" y2="16.1396" gradientUnits="userSpaceOnUse">
<stop stop-color="#007496"/>
<stop offset="0.03" stop-color="#007193"/>
<stop offset="0.44" stop-color="#01566F"/>
<stop offset="0.78" stop-color="#014659"/>
<stop offset="1" stop-color="#024052"/>
</linearGradient>
<linearGradient id="paint6_linear_1_21" x1="4.26952" y1="23.6379" x2="20.5411" y2="3.90038" gradientUnits="userSpaceOnUse">
<stop stop-color="#007496"/>
<stop offset="0.31" stop-color="#2D98B2"/>
<stop offset="0.61" stop-color="#51B4C9"/>
<stop offset="0.85" stop-color="#67C5D6"/>
<stop offset="1" stop-color="#6FCCDC"/>
</linearGradient>
</defs>
</svg>
