<svg width="116" height="33" viewBox="0 0 116 33" fill="none" xmlns="http://www.w3.org/2000/svg">
<g clip-path="url(#clip0_16_84292)">
<path d="M41.9803 19.39V22.19H35.6503V23.08H41.8503V25.88H35.6503V28.3H32.0703V19.39H41.9803ZM51.0703 19.39L55.2003 28.3H51.4803L50.7803 26.77H46.1303L45.4303 28.3H41.7103L45.8403 19.39H51.0703ZM47.2003 24.48H49.7103L48.4603 21.77L47.2103 24.48H47.2003ZM67.3503 24.35C67.2203 25.65 66.6503 26.65 65.6303 27.34C64.5703 28.06 63.1003 28.42 61.2003 28.42C59.1703 28.42 57.6203 28.02 56.5603 27.21C55.5203 26.42 55.0003 25.3 55.0003 23.84C55.0003 22.38 55.5203 21.26 56.5603 20.47C57.6203 19.66 59.1703 19.26 61.2003 19.26C63.1003 19.26 64.5803 19.62 65.6303 20.34C66.6503 21.04 67.2203 22.03 67.3503 23.33H63.7303C63.4703 22.48 62.6303 22.06 61.2003 22.06C59.4603 22.06 58.5803 22.65 58.5803 23.84C58.5803 25.03 59.4503 25.62 61.2003 25.62C62.6303 25.62 63.4803 25.2 63.7303 24.35H67.3503ZM78.2903 19.39V22.19H74.7103V28.3H71.1303V22.19H67.5503V19.39H78.2903ZM84.7003 19.26C86.7303 19.26 88.2803 19.66 89.3403 20.47C90.3803 21.26 90.9003 22.38 90.9003 23.84C90.9003 25.3 90.3803 26.42 89.3403 27.21C88.2803 28.02 86.7303 28.42 84.7003 28.42C82.6703 28.42 81.1203 28.02 80.0603 27.21C79.0203 26.42 78.5003 25.3 78.5003 23.84C78.5003 22.38 79.0203 21.26 80.0603 20.47C81.1203 19.66 82.6703 19.26 84.7003 19.26ZM84.7003 25.63C86.4403 25.63 87.3203 25.04 87.3203 23.85C87.3203 22.66 86.4503 22.07 84.7003 22.07C82.9503 22.07 82.0803 22.66 82.0803 23.85C82.0803 25.04 82.9503 25.63 84.7003 25.63ZM95.5103 28.3H91.9303V19.39H98.3103C99.8203 19.39 100.98 19.69 101.78 20.31C102.56 20.9 102.95 21.74 102.95 22.83C102.95 24.21 102.34 25.19 101.11 25.76L102.95 28.31H99.2303L97.7603 26.27H95.5203V28.31L95.5103 28.3ZM95.5103 23.46H98.4303C99.0503 23.46 99.3703 23.25 99.3703 22.82C99.3703 22.39 99.0603 22.18 98.4303 22.18H95.5103V23.45V23.46ZM109.41 24.92C107.01 24.85 105.4 24.59 104.56 24.13C103.84 23.75 103.49 23.06 103.49 22.07C103.49 21.08 103.91 20.42 104.74 19.98C105.67 19.5 107.22 19.25 109.41 19.25C111.6 19.25 113.11 19.53 113.99 20.09C114.78 20.58 115.17 21.38 115.17 22.5H111.59C111.59 22.21 111.44 22.03 111.15 21.94C110.87 21.85 110.28 21.8 109.4 21.8C108.44 21.8 107.81 21.83 107.53 21.9C107.33 21.95 107.23 22.05 107.23 22.21C107.23 22.37 107.33 22.45 107.53 22.5C107.79 22.55 108.41 22.59 109.4 22.63C111.79 22.72 113.4 22.99 114.23 23.44C114.95 23.84 115.32 24.54 115.32 25.53C115.32 26.52 114.9 27.2 114.07 27.66C113.13 28.17 111.58 28.42 109.4 28.42C107.22 28.42 105.66 28.14 104.73 27.58C103.89 27.08 103.48 26.28 103.48 25.17H107.06C107.06 25.46 107.2 25.65 107.49 25.73C107.77 25.82 108.41 25.87 109.4 25.87C110.39 25.87 110.99 25.84 111.27 25.77C111.48 25.72 111.59 25.62 111.59 25.46C111.59 25.29 111.49 25.17 111.29 25.1C110.99 25 110.36 24.93 109.4 24.91L109.41 24.92Z" fill="#6FCCDC"/>
<path d="M28.8301 0.679688L30.3001 1.16969C32.0801 1.75969 33.6701 2.70969 34.9601 3.99969L33.4901 3.50969C32.2001 2.21969 30.6101 1.25969 28.8301 0.679688Z" fill="url(#paint0_linear_16_84292)"/>
<path d="M33.4908 3.50977L34.9708 3.99977L22.5308 16.3598L21.0508 15.8698L33.4908 3.50977Z" fill="url(#paint1_linear_16_84292)"/>
<path d="M14.7903 31.5598L13.3203 31.0698C14.4603 31.4498 15.7003 31.6698 17.0203 31.7298C20.8603 31.8898 24.9503 30.5698 28.4603 28.0298L29.9303 28.5198C26.4103 31.0598 22.3303 32.3798 18.4903 32.2198C17.1703 32.1698 15.9403 31.9398 14.7903 31.5598Z" fill="url(#paint2_linear_16_84292)"/>
<path d="M25.0899 0.00987319C28.3999 0.149873 31.3499 1.36987 33.4899 3.50987L21.0499 15.8699L28.4499 28.0199C24.9299 30.5599 20.8499 31.8799 17.0099 31.7199C8.54986 31.3699 3.39986 23.9299 5.61986 15.2299C7.83986 6.52987 16.6299 -0.340127 25.0899 0.00987319Z" fill="url(#paint3_linear_16_84292)"/>
<path d="M21.0508 15.8701L22.5308 16.3601L29.9308 28.5101L28.4608 28.0301L21.0508 15.8701Z" fill="url(#paint4_linear_16_84292)"/>
<path d="M45.4898 13.0296L43.9898 12.5296C43.9898 12.1696 43.9698 11.8096 43.9398 11.4596C43.9298 11.3196 43.9198 11.1796 43.8998 11.0496C43.8898 10.9396 43.8798 10.8396 43.8598 10.7396C43.7598 9.99965 43.6098 9.28965 43.4098 8.60965C43.3798 8.49965 43.3498 8.39965 43.3098 8.28965C43.2298 8.03965 43.1398 7.80965 43.0498 7.56965C42.9798 7.39965 42.9098 7.22965 42.8398 7.06965C42.5898 6.49965 42.2998 5.95965 41.9798 5.45965C41.7698 5.12965 41.5498 4.80965 41.2998 4.50965C41.2398 4.42965 41.1798 4.35965 41.1198 4.27965C41.0798 4.22965 41.0398 4.18965 41.0098 4.13965L42.6098 4.75965C44.5698 6.65965 45.4498 9.19965 45.4698 13.0396L45.4898 13.0296Z" fill="#046076"/>
<path d="M45.4898 13.0296L29.2698 16.6496L27.7598 16.1496L43.9898 12.5396L45.4898 13.0296Z" fill="#148EAA"/>
<path d="M43.9898 12.5396L27.7598 16.1496L41.0198 4.13965C41.0198 4.13965 41.0998 4.22965 41.1398 4.27965C41.1998 4.35965 41.2598 4.42965 41.3198 4.50965C41.5598 4.81965 41.7898 5.13965 41.9998 5.45965C42.3198 5.96965 42.6098 6.50965 42.8598 7.06965C42.9298 7.22965 42.9998 7.39965 43.0698 7.56965C43.1598 7.80965 43.2498 8.03965 43.3298 8.28965C43.3698 8.39965 43.3998 8.49965 43.4298 8.60965C43.6298 9.28965 43.7798 10.0096 43.8798 10.7396C43.8898 10.8396 43.8998 10.9396 43.9198 11.0496C43.9298 11.1796 43.9398 11.3196 43.9598 11.4596C43.9898 11.8096 44.0098 12.1696 44.0098 12.5296L43.9898 12.5396Z" fill="url(#paint5_linear_16_84292)"/>
<path opacity="0.53" d="M5.6193 15.24C4.1193 21.14 5.9993 26.46 10.0093 29.39C10.0193 29.33 15.3893 8.64996 15.4693 6.79996C15.5393 5.13996 13.7593 4.14996 13.3893 3.95996C9.6793 6.73996 6.7693 10.75 5.6193 15.25V15.24Z" fill="#045169"/>
<path d="M4.36914 1.17969L5.52914 1.23969C7.56914 1.34969 9.17914 2.98969 9.16914 5.01969L8.00914 4.95969C8.00914 2.92969 6.40914 1.28969 4.36914 1.17969Z" fill="#3991A6"/>
<path d="M8.00992 4.95996L9.16992 5.01996L9.07992 28.27L7.91992 28.21L8.00992 4.95996Z" fill="#3991A6"/>
<path d="M4.07 1.17978C6.25 1.12978 8.02 2.83978 8.01 4.95978L7.92 28.2098C7.92 30.3398 6.12 32.1198 3.95 32.1598C1.78 32.1998 0 30.5098 0 28.3798L0.09 5.12978C0.09 2.99978 1.89 1.22978 4.06 1.17978H4.07Z" fill="url(#paint6_linear_16_84292)"/>
<path d="M4.80063 32.22L3.64062 32.16C3.74063 32.16 3.84062 32.16 3.95062 32.16C6.13063 32.11 7.92062 30.33 7.92062 28.21L9.08062 28.27C9.08062 30.4 7.28063 32.18 5.11063 32.22C5.01063 32.22 4.90063 32.22 4.80063 32.22Z" fill="#3991A6"/>
</g>
<defs>
<linearGradient id="paint0_linear_16_84292" x1="28.8301" y1="2.33969" x2="34.9701" y2="2.33969" gradientUnits="userSpaceOnUse">
<stop stop-color="#007496"/>
<stop offset="0.26" stop-color="#007193"/>
<stop offset="0.45" stop-color="#006A8A"/>
<stop offset="0.61" stop-color="#015F7A"/>
<stop offset="0.75" stop-color="#024E64"/>
<stop offset="0.89" stop-color="#043949"/>
<stop offset="1" stop-color="#06232B"/>
</linearGradient>
<linearGradient id="paint1_linear_16_84292" x1="21.0508" y1="9.93977" x2="1.00078" y2="9.93977" gradientUnits="userSpaceOnUse">
<stop stop-color="#007496"/>
<stop offset="0.26" stop-color="#007193"/>
<stop offset="0.45" stop-color="#006A8A"/>
<stop offset="0.61" stop-color="#015F7A"/>
<stop offset="0.75" stop-color="#024E64"/>
<stop offset="0.89" stop-color="#043949"/>
<stop offset="1" stop-color="#06232B"/>
</linearGradient>
<linearGradient id="paint2_linear_16_84292" x1="13.3203" y1="30.1298" x2="29.9303" y2="30.1298" gradientUnits="userSpaceOnUse">
<stop stop-color="#007496"/>
<stop offset="0.26" stop-color="#007193"/>
<stop offset="0.45" stop-color="#006A8A"/>
<stop offset="0.61" stop-color="#015F7A"/>
<stop offset="0.75" stop-color="#024E64"/>
<stop offset="0.89" stop-color="#043949"/>
<stop offset="1" stop-color="#06232B"/>
</linearGradient>
<linearGradient id="paint3_linear_16_84292" x1="5.51031" y1="23.1532" x2="36.0108" y2="8.89168" gradientUnits="userSpaceOnUse">
<stop stop-color="#007496"/>
<stop offset="0.26" stop-color="#007193"/>
<stop offset="0.45" stop-color="#006A8A"/>
<stop offset="0.61" stop-color="#015F7A"/>
<stop offset="0.75" stop-color="#024E64"/>
<stop offset="0.89" stop-color="#043949"/>
<stop offset="1" stop-color="#06232B"/>
</linearGradient>
<linearGradient id="paint4_linear_16_84292" x1="21.0508" y1="22.1901" x2="29.9308" y2="22.1901" gradientUnits="userSpaceOnUse">
<stop stop-color="#007496"/>
<stop offset="0.26" stop-color="#007193"/>
<stop offset="0.45" stop-color="#006A8A"/>
<stop offset="0.61" stop-color="#015F7A"/>
<stop offset="0.75" stop-color="#024E64"/>
<stop offset="0.89" stop-color="#043949"/>
<stop offset="1" stop-color="#06232B"/>
</linearGradient>
<linearGradient id="paint5_linear_16_84292" x1="34.0798" y1="9.82965" x2="40.3898" y2="16.1396" gradientUnits="userSpaceOnUse">
<stop stop-color="#007496"/>
<stop offset="0.03" stop-color="#007193"/>
<stop offset="0.44" stop-color="#01566F"/>
<stop offset="0.78" stop-color="#014659"/>
<stop offset="1" stop-color="#024052"/>
</linearGradient>
<linearGradient id="paint6_linear_16_84292" x1="-1.73048" y1="23.6379" x2="14.5411" y2="3.90038" gradientUnits="userSpaceOnUse">
<stop stop-color="#007496"/>
<stop offset="0.31" stop-color="#2D98B2"/>
<stop offset="0.61" stop-color="#51B4C9"/>
<stop offset="0.85" stop-color="#67C5D6"/>
<stop offset="1" stop-color="#6FCCDC"/>
</linearGradient>
<clipPath id="clip0_16_84292">
<rect width="115.33" height="32.23" fill="white"/>
</clipPath>
</defs>
</svg>
