<svg xmlns="http://www.w3.org/2000/svg" width="375" height="208" viewBox="0 0 375 208" fill="none">
    <path fill-rule="evenodd" clip-rule="evenodd" d="M266.503 -37.2155L382.508 -121.947C383.566 -122.646 383.808 -122.863 384.957 -123.416C386.682 -124.243 388.563 -124.765 390.477 -124.936C390.953 -124.981 391.437 -124.981 391.913 -125C392.39 -124.981 392.874 -124.955 393.35 -124.936C395.29 -124.676 397.106 -124.268 398.87 -123.416C400.019 -122.863 400.261 -122.646 401.319 -121.947L526.729 -30.3454C527.866 -29.4293 528.918 -28.5133 529.812 -27.362C531.276 -25.479 532.281 -23.2717 532.732 -20.9499C532.967 -19.7094 532.941 -19.385 533 -18.1319V134.537C532.935 135.975 532.804 137.336 532.399 138.729C531.733 141 530.518 143.112 528.878 144.848C528.01 145.784 527.722 145.949 526.729 146.75L401.319 238.352L275.909 329.953C274.701 330.754 273.512 331.473 272.14 331.989C268.535 333.337 264.472 333.337 260.866 331.989C259.495 331.473 258.306 330.754 257.098 329.953L131.687 238.352L6.27704 146.75C5.28421 145.949 4.99681 145.784 4.12809 144.848C2.48861 143.112 1.2737 141 0.607456 138.729C0.202485 137.336 0.0718496 135.975 0 134.537V-18.1319C0.0653178 -19.385 0.0391907 -19.7094 0.274335 -20.9499C0.725028 -23.2717 1.73092 -25.479 3.19404 -27.362C4.0889 -28.5133 5.14051 -29.4293 6.27704 -30.3454L131.687 -121.947C132.745 -122.646 132.987 -122.863 134.137 -123.416C135.861 -124.243 137.742 -124.765 139.656 -124.936C140.133 -124.981 140.61 -124.981 141.093 -125C141.57 -124.981 142.053 -124.955 142.53 -124.936C143.797 -124.765 144.124 -124.765 145.358 -124.421C147.253 -123.9 148.885 -123.015 150.499 -121.947L266.503 -37.2155ZM365.786 226.138L312.663 187.335L266.503 153.621L167.22 226.138L266.503 298.656L365.786 226.138ZM501.647 12.4019L407.59 81.1029V195.604L501.647 126.903V12.4019ZM228.547 28.6738L156.769 81.1029V195.604L250.827 126.903V12.4019L228.547 28.6738ZM31.3591 126.903L125.417 195.604V81.1029L31.3591 12.4019V126.903ZM282.18 126.903L331.475 162.908L376.237 195.604V81.1029L282.18 12.4019V126.903ZM292.63 -18.1319L391.913 54.3858L491.197 -18.1319L391.913 -90.6495L292.63 -18.1319ZM41.8099 -18.1319L141.093 54.3858L209.736 4.24684L240.376 -18.1319L141.093 -90.6495L41.8099 -18.1319Z" fill="white" fill-opacity="0.4"/>
</svg>