<svg xmlns="http://www.w3.org/2000/svg" width="20" height="20" viewBox="0 0 20 20" fill="none">
  <path d="M17.5 17.5H14.1667V11.875C14.1667 10.9928 13.1768 10.2548 12.2946 10.2548C11.4124 10.2548 10.8333 10.9928 10.8333 11.875V17.5H7.50001V7.5H10.8333V9.16667C11.3853 8.27381 12.797 7.69773 13.7708 7.69773C15.8304 7.69773 17.5 9.39883 17.5 11.4583V17.5ZM5.83333 17.5H2.5V7.5H5.83333V17.5ZM4.16668 2.5C5.08715 2.5 5.83334 3.24619 5.83334 4.16667C5.83334 5.08714 5.08715 5.83333 4.16668 5.83333C3.2462 5.83333 2.50001 5.08714 2.50001 4.16667C2.50001 3.24619 3.2462 2.5 4.16668 2.5Z" fill="white"/>
</svg>