<svg xmlns="http://www.w3.org/2000/svg" width="20" height="20" viewBox="0 0 20 20" fill="none">
  <path d="M18.7162 5.00999C18.0749 5.29445 17.3855 5.48669 16.6622 5.57313C17.4004 5.13052 17.9676 4.42966 18.2346 3.59449C17.5435 4.00437 16.7782 4.30199 15.9635 4.46234C15.3112 3.76727 14.3818 3.33301 13.3531 3.33301C11.378 3.33301 9.77661 4.93423 9.77661 6.9093C9.77661 7.18959 9.80828 7.46256 9.86928 7.72434C6.89695 7.57517 4.26166 6.15137 2.49778 3.9876C2.18991 4.5158 2.01355 5.13014 2.01355 5.78558C2.01355 7.02637 2.6449 8.12103 3.60456 8.76242C3.01836 8.74376 2.46684 8.58292 1.9847 8.31506C1.98435 8.33 1.98435 8.34492 1.98435 8.36001C1.98435 10.0928 3.21715 11.5383 4.8532 11.8668C4.55311 11.9486 4.23715 11.9923 3.91099 11.9923C3.68054 11.9923 3.4565 11.9698 3.23809 11.9282C3.69321 13.3489 5.01398 14.383 6.57899 14.4118C5.355 15.3711 3.81293 15.9428 2.13731 15.9428C1.84864 15.9428 1.56396 15.9258 1.28418 15.8928C2.8669 16.9075 4.7468 17.4997 6.76645 17.4997C13.3447 17.4997 16.942 12.0501 16.942 7.32399C16.942 7.16896 16.9385 7.01472 16.9316 6.8613C17.6304 6.35706 18.2368 5.72719 18.7162 5.00999Z" fill="white"/>
</svg>