<svg preserveAspectRatio="none" width="100%" height="100%" overflow="visible" style="display: block;" viewBox="0 0 1440 828" fill="none" xmlns="http://www.w3.org/2000/svg">
<g id="&#60;Group&#62;">
<path id="&#60;Path&#62;" d="M1420.27 345.456C1427 345.456 1433.59 346.068 1440 347.184V401.58C1433.81 399.492 1427.18 398.34 1420.27 398.34C1386.36 398.34 1358.86 425.844 1358.86 459.756C1358.86 493.668 1386.36 521.136 1420.27 521.136C1427.18 521.136 1433.81 520.02 1440 517.896V572.328C1433.59 573.444 1427 574.02 1420.27 574.02C1357.16 574.02 1305.97 522.864 1305.97 459.756C1305.97 396.648 1357.16 345.456 1420.27 345.456Z" fill="var(--fill-0, #838383)"/>
<path id="&#60;Path&#62;_2" d="M1130.76 344.232C1176.66 344.232 1214.1 306.792 1214.1 260.892C1214.1 214.956 1176.66 177.516 1130.76 177.516C1084.82 177.516 1047.38 214.956 1047.38 260.892C1047.38 306.792 1084.82 344.232 1130.76 344.232Z" fill="var(--fill-0, #838383)"/>
<path id="&#60;Path&#62;_3" d="M1418.47 280.584C1425.75 280.584 1432.95 281.016 1440 281.88V284.76C1432.95 283.896 1425.75 283.464 1418.47 283.464C1370.27 283.464 1326.67 302.976 1295.07 334.548C1263.49 366.12 1243.98 409.752 1243.98 457.956C1243.98 506.124 1263.49 549.756 1295.07 581.328C1326.67 612.9 1370.27 632.448 1418.47 632.448C1425.75 632.448 1432.95 631.98 1440 631.116V634.032C1432.95 634.896 1425.75 635.328 1418.47 635.328C1369.48 635.328 1325.13 615.456 1293.05 583.38C1260.94 551.268 1241.1 506.916 1241.1 457.956C1241.1 408.96 1260.94 364.608 1293.05 332.532C1325.13 300.42 1369.48 280.584 1418.47 280.584Z" fill="var(--fill-0, #171415)"/>
<path id="&#60;Path&#62;_4" d="M1280.77 686.376C1344.17 686.376 1395.58 737.784 1395.58 801.18C1395.58 810.432 1394.46 819.396 1392.41 828H1169.14C1167.05 819.396 1165.97 810.432 1165.97 801.18C1165.97 737.784 1217.38 686.376 1280.77 686.376Z" fill="var(--fill-0, #838383)"/>
<path id="&#60;Path&#62;_5" d="M1148.08 674.28H1440V677.16H1148.08C1135.8 677.16 1124.6 682.164 1116.5 690.264C1108.4 698.364 1103.4 709.56 1103.4 721.836C1103.4 734.112 1108.4 745.272 1116.5 753.372C1124.6 761.472 1135.8 766.512 1148.08 766.512H1440V769.392H1148.08C1134.97 769.392 1123.09 764.028 1114.49 755.424C1105.85 746.82 1100.52 734.904 1100.52 721.836C1100.52 708.732 1105.85 696.852 1114.49 688.248C1123.09 679.608 1134.97 674.28 1148.08 674.28Z" fill="var(--fill-0, black)"/>
<path id="&#60;Path&#62;_6" d="M1059.73 627.768C1081.04 627.768 1098.43 610.38 1098.43 589.068C1098.43 567.756 1081.04 550.368 1059.73 550.368C1038.42 550.368 1021.03 567.756 1021.03 589.068C1021.03 610.38 1038.42 627.768 1059.73 627.768Z" fill="var(--fill-0, #171415)"/>
<path id="&#60;Compound Path&#62;" fill-rule="evenodd" clip-rule="evenodd" d="M1139.47 502.596C1150.67 502.596 1159.74 511.632 1159.74 522.828C1159.74 534.024 1150.67 543.06 1139.47 543.06C1128.31 543.06 1119.24 534.024 1119.24 522.828C1119.24 511.632 1128.31 502.596 1139.47 502.596ZM1139.47 516.204C1135.83 516.204 1132.88 519.192 1132.88 522.828C1132.88 526.464 1135.83 529.452 1139.47 529.452C1143.14 529.452 1146.09 526.464 1146.09 522.828C1146.09 519.192 1143.14 516.204 1139.47 516.204Z" fill="var(--fill-0, #838383)"/>
<path id="&#60;Path&#62;_7" d="M11.3339 354C7.46629 354 3.68144 353.665 0 353.015V321.342C3.55735 322.578 7.36288 323.227 11.3339 323.227C30.8165 323.227 46.6178 307.244 46.6178 287.51C46.6178 267.777 30.8165 251.773 11.3339 251.773C7.36288 251.773 3.55735 252.443 0 253.658V222.006C3.68144 221.356 7.46629 221 11.3339 221C47.5898 221 77 250.788 77 287.51C77 324.233 47.5898 354 11.3339 354Z" fill="var(--fill-0, #838383)"/>
<path id="&#60;Path&#62;_8" d="M405.469 704.052C451.405 704.052 488.845 666.612 488.845 620.676C488.845 574.776 451.405 537.336 405.469 537.336C359.569 537.336 322.129 574.776 322.129 620.676C322.129 666.612 359.569 704.052 405.469 704.052Z" fill="var(--fill-0, #838383)"/>
<path id="&#60;Path&#62;_9" d="M12.3388 391C8.17086 391 4.04416 390.75 0 390.251V388.566C4.04416 389.065 8.17086 389.336 12.3388 389.336C39.9671 389.336 64.9542 378.039 83.0704 359.794C101.166 341.55 112.349 316.335 112.349 288.5C112.349 260.644 101.166 235.43 83.0704 217.185C64.9542 198.94 39.9671 187.664 12.3388 187.664C8.17086 187.664 4.04416 187.914 0 188.413V186.749C4.04416 186.25 8.17086 186 12.3388 186C40.421 186 65.8415 197.463 84.2259 216.02C102.631 234.556 114 260.186 114 288.5C114 316.793 102.631 342.423 84.2259 360.98C65.8415 379.516 40.421 391 12.3388 391Z" fill="var(--fill-0, #838383)"/>
<path id="&#60;Path&#62;_10" d="M159.23 141.624C95.8338 141.624 44.4258 90.216 44.4258 26.82C44.4258 17.568 45.5418 8.604 47.5938 0H270.866C272.954 8.604 274.034 17.568 274.034 26.82C274.034 90.216 222.626 141.624 159.23 141.624Z" fill="var(--fill-0, #838383)"/>
<path id="&#60;Path&#62;_11" d="M291.924 153.72H0V150.84H291.924C304.236 150.84 315.396 145.836 323.496 137.736C331.596 129.636 336.6 118.44 336.6 106.164C336.6 93.888 331.596 82.728 323.496 74.628C315.396 66.528 304.236 61.488 291.924 61.488H0V58.608H291.924C305.028 58.608 316.908 63.972 325.512 72.576C334.152 81.18 339.48 93.096 339.48 106.164C339.48 119.268 334.152 131.148 325.512 139.752C316.908 148.392 305.028 153.72 291.924 153.72Z" fill="var(--fill-0, black)"/>
<path id="&#60;Path&#62;_12" d="M60.5 608C69.6004 608 77 600.6 77 591.5C77 582.422 69.6004 575 60.5 575C51.4217 575 44 582.422 44 591.5C44 600.6 51.4217 608 60.5 608Z" fill="var(--fill-0, #171415)"/>
<path id="&#60;Compound Path&#62;_2" fill-rule="evenodd" clip-rule="evenodd" d="M288.232 285.5C277.036 285.5 268 276.428 268 265.268C268 254.072 277.036 245 288.232 245C299.428 245 308.5 254.072 308.5 265.268C308.5 276.428 299.428 285.5 288.232 285.5ZM288.232 271.856C291.868 271.856 294.856 268.904 294.856 265.268C294.856 261.596 291.868 258.644 288.232 258.644C284.596 258.644 281.608 261.596 281.608 265.268C281.608 268.904 284.596 271.856 288.232 271.856Z" fill="var(--fill-0, #838383)"/>
<g id="&#60;Group&#62;_2">
<path id="&#60;Path&#62;_13" d="M562.884 218.768C543.624 218.768 528 203.144 528 183.884C528 164.624 543.624 149 562.884 149V218.768Z" fill="var(--fill-0, #838383)"/>
<path id="&#60;Path&#62;_14" d="M609.36 218.768C590.1 218.768 574.512 203.144 574.512 183.884C574.512 164.624 590.1 149 609.36 149V218.768Z" fill="var(--fill-0, #838383)"/>
<path id="&#60;Path&#62;_15" d="M655.872 218.768C636.612 218.768 620.988 203.144 620.988 183.884C620.988 164.624 636.612 149 655.872 149V218.768Z" fill="var(--fill-0, #838383)"/>
</g>
<g id="&#60;Group&#62;_3">
<path id="&#60;Path&#62;_16" d="M891.648 756.72C910.908 756.72 926.532 741.096 926.532 721.836C926.532 702.576 910.908 686.952 891.648 686.952V756.72Z" fill="var(--fill-0, #838383)"/>
<path id="&#60;Path&#62;_17" d="M845.172 756.72C864.432 756.72 880.02 741.096 880.02 721.836C880.02 702.576 864.432 686.952 845.172 686.952V756.72Z" fill="var(--fill-0, #171415)"/>
<path id="&#60;Path&#62;_18" d="M798.66 756.72C817.92 756.72 833.544 741.096 833.544 721.836C833.544 702.576 817.92 686.952 798.66 686.952V756.72Z" fill="var(--fill-0, #838383)"/>
</g>
<g id="&#60;Group&#62;_4">
<path id="&#60;Path&#62;_19" d="M927.974 239.76H885.89C874.55 239.76 865.262 230.472 865.262 219.132H927.974V239.76Z" fill="var(--fill-0, #838383)"/>
<path id="&#60;Path&#62;_20" d="M927.973 198.54H970.057C981.397 198.54 990.685 207.792 990.685 219.132H927.973V198.54Z" fill="var(--fill-0, #171415)"/>
</g>
<g id="&#60;Group&#62;_5">
<path id="&#60;Path&#62;_21" d="M190.906 782.604H232.99C244.33 782.604 253.618 773.316 253.618 761.976H190.906V782.604Z" fill="var(--fill-0, #838383)"/>
<path id="&#60;Path&#62;_22" d="M190.907 741.348H148.823C137.483 741.348 128.195 750.636 128.195 761.976H190.907V741.348Z" fill="var(--fill-0, #171415)"/>
</g>
<g id="&#60;Group&#62;_6">
<path id="&#60;Compound Path&#62;_3" fill-rule="evenodd" clip-rule="evenodd" d="M322.882 590.256C336.346 590.256 348.55 595.728 357.406 604.548C366.226 613.404 371.698 625.608 371.698 639.072C371.698 652.536 366.226 664.74 357.406 673.596C348.55 682.416 336.346 687.888 322.882 687.888C309.418 687.888 297.214 682.416 288.358 673.596C279.538 664.74 274.066 652.536 274.066 639.072C274.066 625.608 279.538 613.404 288.358 604.548C297.214 595.728 309.418 590.256 322.882 590.256ZM355.354 606.6C347.038 598.284 335.554 593.136 322.882 593.136C310.21 593.136 298.726 598.284 290.41 606.6C282.094 614.916 276.946 626.4 276.946 639.072C276.946 651.744 282.094 663.228 290.41 671.544C298.726 679.86 310.21 685.008 322.882 685.008C335.554 685.008 347.038 679.86 355.354 671.544C363.67 663.228 368.818 651.744 368.818 639.072C368.818 626.4 363.67 614.916 355.354 606.6Z" fill="var(--fill-0, #838383)"/>
<path id="&#60;Compound Path&#62;_4" fill-rule="evenodd" clip-rule="evenodd" d="M322.883 611.064C330.623 611.064 337.607 614.196 342.683 619.272C347.759 624.348 350.891 631.332 350.891 639.072C350.891 646.812 347.759 653.796 342.683 658.872C337.607 663.948 330.623 667.08 322.883 667.08C315.143 667.08 308.159 663.948 303.083 658.872C298.043 653.796 294.875 646.812 294.875 639.072C294.875 631.332 298.043 624.348 303.083 619.272C308.159 614.196 315.143 611.064 322.883 611.064ZM340.631 621.324C336.095 616.752 329.831 613.944 322.883 613.944C315.935 613.944 309.671 616.752 305.135 621.324C300.599 625.86 297.755 632.124 297.755 639.072C297.755 646.02 300.599 652.284 305.135 656.82C309.671 661.392 315.935 664.2 322.883 664.2C329.831 664.2 336.095 661.392 340.631 656.82C345.203 652.284 348.011 646.02 348.011 639.072C348.011 632.124 345.203 625.86 340.631 621.324Z" fill="var(--fill-0, #838383)"/>
<path id="&#60;Compound Path&#62;_5" fill-rule="evenodd" clip-rule="evenodd" d="M322.882 626.256C326.41 626.256 329.614 627.696 331.954 630C334.258 632.34 335.698 635.544 335.698 639.072C335.698 642.6 334.258 645.804 331.954 648.144C329.614 650.448 326.41 651.888 322.882 651.888C319.354 651.888 316.15 650.448 313.846 648.144C311.506 645.804 310.066 642.6 310.066 639.072C310.066 635.544 311.506 632.34 313.846 630C316.15 627.696 319.354 626.256 322.882 626.256ZM329.902 632.052C328.102 630.252 325.618 629.136 322.882 629.136C320.146 629.136 317.662 630.252 315.862 632.052C314.062 633.852 312.946 636.336 312.946 639.072C312.946 641.808 314.062 644.292 315.862 646.092C317.662 647.892 320.146 649.008 322.882 649.008C325.618 649.008 328.102 647.892 329.902 646.092C331.702 644.292 332.818 641.808 332.818 639.072C332.818 636.336 331.702 633.852 329.902 632.052Z" fill="var(--fill-0, #838383)"/>
</g>
<g id="&#60;Group&#62;_7">
<path id="&#60;Compound Path&#62;_6" fill-rule="evenodd" clip-rule="evenodd" d="M1208.77 199.476C1222.24 199.476 1234.44 204.948 1243.26 213.768C1252.12 222.624 1257.55 234.828 1257.55 248.292C1257.55 261.756 1252.12 273.96 1243.26 282.816C1234.44 291.636 1222.24 297.108 1208.77 297.108C1195.27 297.108 1183.07 291.636 1174.25 282.816C1165.43 273.96 1159.96 261.756 1159.96 248.292C1159.96 234.828 1165.43 222.624 1174.25 213.768C1183.07 204.948 1195.27 199.476 1208.77 199.476ZM1241.24 215.82C1232.93 207.504 1221.44 202.356 1208.77 202.356C1196.06 202.356 1184.58 207.504 1176.26 215.82C1167.98 224.136 1162.84 235.62 1162.84 248.292C1162.84 260.964 1167.98 272.448 1176.26 280.764C1184.58 289.08 1196.06 294.228 1208.77 294.228C1221.44 294.228 1232.93 289.08 1241.24 280.764C1249.56 272.448 1254.67 260.964 1254.67 248.292C1254.67 235.62 1249.56 224.136 1241.24 215.82Z" fill="var(--fill-0, #171415)"/>
<path id="&#60;Compound Path&#62;_7" fill-rule="evenodd" clip-rule="evenodd" d="M1208.77 220.284C1216.48 220.284 1223.5 223.452 1228.54 228.492C1233.61 233.568 1236.75 240.552 1236.75 248.292C1236.75 256.032 1233.61 263.016 1228.54 268.092C1223.5 273.168 1216.48 276.3 1208.77 276.3C1201.03 276.3 1194.01 273.168 1188.97 268.092C1183.9 263.016 1180.77 256.032 1180.77 248.292C1180.77 240.552 1183.9 233.568 1188.97 228.492C1194.01 223.452 1201.03 220.284 1208.77 220.284ZM1226.52 230.544C1221.99 226.008 1215.69 223.164 1208.77 223.164C1201.83 223.164 1195.56 226.008 1190.99 230.544C1186.45 235.08 1183.65 241.344 1183.65 248.292C1183.65 255.24 1186.45 261.504 1190.99 266.04C1195.56 270.612 1201.83 273.42 1208.77 273.42C1215.69 273.42 1221.99 270.612 1226.52 266.04C1231.06 261.504 1233.87 255.24 1233.87 248.292C1233.87 241.344 1231.06 235.08 1226.52 230.544Z" fill="var(--fill-0, #171415)"/>
<path id="&#60;Compound Path&#62;_8" fill-rule="evenodd" clip-rule="evenodd" d="M1208.77 235.476C1212.3 235.476 1215.51 236.916 1217.81 239.256C1220.15 241.56 1221.55 244.764 1221.55 248.292C1221.55 251.82 1220.15 255.024 1217.81 257.364C1215.51 259.668 1212.3 261.108 1208.77 261.108C1205.21 261.108 1202 259.668 1199.7 257.364C1197.4 255.024 1195.96 251.82 1195.96 248.292C1195.96 244.764 1197.4 241.56 1199.7 239.256C1202 236.916 1205.21 235.476 1208.77 235.476ZM1215.79 241.272C1213.99 239.472 1211.51 238.356 1208.77 238.356C1206 238.356 1203.52 239.472 1201.75 241.272C1199.95 243.072 1198.84 245.556 1198.84 248.292C1198.84 251.028 1199.95 253.512 1201.75 255.312C1203.52 257.112 1206 258.228 1208.77 258.228C1211.51 258.228 1213.99 257.112 1215.79 255.312C1217.59 253.512 1218.67 251.028 1218.67 248.292C1218.67 245.556 1217.59 243.072 1215.79 241.272Z" fill="var(--fill-0, #171415)"/>
</g>
<path id="&#60;Compound Path&#62;_9" fill-rule="evenodd" clip-rule="evenodd" d="M340.992 702.432C350.712 702.432 358.596 710.352 358.596 720.072C358.596 729.792 350.712 737.676 340.992 737.676C331.272 737.676 323.352 729.792 323.352 720.072C323.352 710.352 331.272 702.432 340.992 702.432ZM340.992 712.188C336.636 712.188 333.108 715.716 333.108 720.072C333.108 724.392 336.636 727.92 340.992 727.92C345.312 727.92 348.84 724.392 348.84 720.072C348.84 715.716 345.312 712.188 340.992 712.188Z" fill="var(--fill-0, #171415)"/>
<path id="&#60;Compound Path&#62;_10" fill-rule="evenodd" clip-rule="evenodd" d="M1195.38 138.708C1205.1 138.708 1212.99 146.592 1212.99 156.348C1212.99 166.068 1205.1 173.952 1195.38 173.952C1185.66 173.952 1177.78 166.068 1177.78 156.348C1177.78 146.592 1185.66 138.708 1195.38 138.708ZM1195.38 148.464C1191.03 148.464 1187.53 151.992 1187.53 156.348C1187.53 160.668 1191.03 164.196 1195.38 164.196C1199.74 164.196 1203.23 160.668 1203.23 156.348C1203.23 151.992 1199.74 148.464 1195.38 148.464Z" fill="var(--fill-0, #171415)"/>
<path id="&#60;Compound Path&#62;_11" fill-rule="evenodd" clip-rule="evenodd" d="M551 570.278L499.97 519C501.366 519 502.761 519.055 504.157 519.164L550.836 566.092C550.945 567.487 551 568.883 551 570.278ZM550.313 578.421L491.825 519.654C493.002 519.458 494.191 519.305 495.39 519.196L550.771 574.856C550.662 576.034 550.509 577.222 550.313 578.421ZM550.117 560.565L509.685 519.916C511.474 520.265 513.251 520.711 515.017 521.257L548.808 555.202C549.354 556.968 549.79 558.756 550.117 560.565ZM548.612 585.517L484.694 521.322C485.741 520.995 486.787 520.711 487.834 520.472L549.495 582.378C549.234 583.425 548.939 584.471 548.612 585.517ZM546.093 591.862L478.348 523.807C479.285 523.371 480.223 522.968 481.161 522.597L547.336 589.049C546.944 589.987 546.529 590.924 546.093 591.862ZM536.149 534.011C540.107 538 543.247 542.448 545.635 547.223L522.999 524.461C527.742 526.881 532.191 530.054 536.149 534.011ZM542.953 597.519L472.656 526.914C473.485 526.391 474.324 525.889 475.175 525.41L544.458 595.001C543.978 595.852 543.476 596.691 542.953 597.519ZM539.224 602.621L467.553 530.609C468.294 529.999 469.047 529.421 469.81 528.876L540.99 600.365C540.423 601.128 539.834 601.88 539.224 602.621ZM535.985 606.153C535.637 606.502 535.288 606.829 534.939 607.134L463.006 534.861C463.333 534.534 463.66 534.196 463.987 533.847C464.336 533.52 464.674 533.193 465.001 532.866L536.967 605.139C536.64 605.488 536.313 605.826 535.985 606.153ZM530.13 611.156L458.982 539.668C459.549 538.905 460.138 538.153 460.749 537.412L532.42 609.391C531.678 610.001 530.915 610.59 530.13 611.156ZM524.765 614.59L455.515 544.999C455.973 544.148 456.475 543.309 457.02 542.481L527.284 613.086C526.455 613.631 525.616 614.132 524.765 614.59ZM521.625 616.225C520.687 616.661 519.75 617.065 518.812 617.435L452.636 550.951C453.029 550.013 453.443 549.087 453.879 548.171L521.625 616.225ZM515.279 618.678C514.232 619.005 513.185 619.299 512.139 619.561L450.477 557.622C450.739 556.575 451.034 555.54 451.361 554.515L515.279 618.678ZM508.181 620.346C506.981 620.542 505.793 620.695 504.615 620.804L449.234 565.144C449.343 563.966 449.496 562.778 449.692 561.579L508.181 620.346ZM500.035 621C498.64 621 497.244 620.945 495.848 620.836L449.136 573.941C449.027 572.545 448.984 571.15 449.005 569.755L500.035 621ZM490.32 620.052C488.51 619.725 486.733 619.289 484.988 618.743L451.164 584.798C450.641 583.032 450.205 581.244 449.856 579.435L490.32 620.052ZM477.007 615.506C472.263 613.119 467.815 609.946 463.856 605.957C459.898 602 456.758 597.519 454.37 592.777L477.007 615.506Z" fill="var(--fill-0, #838383)"/>
<path id="&#60;Compound Path&#62;_12" fill-rule="evenodd" clip-rule="evenodd" d="M1117.22 301.68L1061.06 245.232C1062.6 245.232 1064.14 245.304 1065.67 245.448L1117.04 297.072C1117.16 298.608 1117.22 300.144 1117.22 301.68ZM1116.47 310.644L1052.1 245.952C1053.4 245.76 1054.7 245.604 1056.02 245.484L1116.97 306.72C1116.85 308.04 1116.68 309.348 1116.47 310.644ZM1116.25 290.988L1071.76 246.276C1073.72 246.636 1075.68 247.116 1077.62 247.716L1114.81 285.12C1115.39 287.04 1115.87 288.996 1116.25 290.988ZM1114.56 318.456L1044.25 247.824C1045.4 247.464 1046.56 247.14 1047.71 246.852L1115.57 315C1115.26 316.176 1114.92 317.328 1114.56 318.456ZM1111.82 325.44L1037.27 250.524C1038.3 250.044 1039.33 249.6 1040.36 249.192L1113.19 322.344C1112.76 323.376 1112.3 324.408 1111.82 325.44ZM1100.88 261.792C1105.24 266.148 1108.69 271.08 1111.32 276.3L1086.41 251.28C1091.63 253.908 1096.52 257.4 1100.88 261.792ZM1108.37 331.668L1031 253.944C1031.92 253.368 1032.84 252.816 1033.78 252.288L1110.02 328.896C1109.5 329.832 1108.94 330.756 1108.37 331.668ZM1104.26 337.284L1025.39 258.048C1026.2 257.376 1027.03 256.728 1027.87 256.104L1106.21 334.8C1105.58 335.64 1104.94 336.468 1104.26 337.284ZM1100.66 341.172C1100.3 341.556 1099.93 341.928 1099.55 342.288L1020.38 262.728C1020.74 262.344 1021.1 261.96 1021.46 261.576C1021.82 261.216 1022.2 260.856 1022.58 260.496L1101.78 340.056C1101.42 340.44 1101.05 340.812 1100.66 341.172ZM1094.26 346.68L1015.92 267.984C1016.54 267.144 1017.2 266.316 1017.9 265.5L1096.74 344.736C1095.92 345.408 1095.1 346.056 1094.26 346.68ZM1088.35 350.46L1012.1 273.852C1012.63 272.94 1013.2 272.028 1013.8 271.116L1091.12 348.84C1090.21 349.416 1089.29 349.956 1088.35 350.46ZM1084.86 352.26C1083.85 352.74 1082.83 353.184 1081.8 353.592L1008.97 280.44C1009.38 279.384 1009.82 278.352 1010.3 277.344L1084.86 352.26ZM1077.88 354.96C1076.75 355.32 1075.6 355.644 1074.42 355.932L1006.6 287.784C1006.88 286.608 1007.21 285.456 1007.57 284.328L1077.88 354.96ZM1070.03 356.796C1068.73 357.012 1067.42 357.18 1066.1 357.3L1005.16 296.064C1005.3 294.744 1005.48 293.436 1005.7 292.14L1070.03 356.796ZM1061.06 357.516C1059.53 357.516 1057.99 357.444 1056.46 357.3L1005.05 305.676C1004.93 304.14 1004.87 302.604 1004.87 301.068L1061.06 357.516ZM1050.37 356.508C1048.4 356.124 1046.45 355.632 1044.5 355.032L1007.32 317.664C1006.74 315.72 1006.26 313.752 1005.88 311.76L1050.37 356.508ZM1035.72 351.504C1030.5 348.876 1025.6 345.384 1021.25 340.992C1016.89 336.636 1013.44 331.704 1010.81 326.484L1035.72 351.504Z" fill="var(--fill-0, #171415)"/>
<path id="&#60;Compound Path&#62;_13" d="M1403.1 438.948C1401.45 438.948 1400.11 437.616 1400.11 435.96C1400.11 434.304 1401.45 432.972 1403.1 432.972C1404.76 432.972 1406.09 434.304 1406.09 435.96C1406.09 437.616 1404.76 438.948 1403.1 438.948ZM1335.6 438.948C1333.95 438.948 1332.61 437.616 1332.61 435.96C1332.61 434.304 1333.95 432.972 1335.6 432.972C1337.26 432.972 1338.59 434.304 1338.59 435.96C1338.59 437.616 1337.26 438.948 1335.6 438.948ZM1268.1 438.948C1266.45 438.948 1265.11 437.616 1265.11 435.96C1265.11 434.304 1266.45 432.972 1268.1 432.972C1269.76 432.972 1271.09 434.304 1271.09 435.96C1271.09 437.616 1269.76 438.948 1268.1 438.948ZM1403.1 485.28C1401.45 485.28 1400.11 483.948 1400.11 482.328C1400.11 480.672 1401.45 479.34 1403.1 479.34C1404.76 479.34 1406.09 480.672 1406.09 482.328C1406.09 483.948 1404.76 485.28 1403.1 485.28ZM1335.6 485.28C1333.95 485.28 1332.61 483.948 1332.61 482.328C1332.61 480.672 1333.95 479.34 1335.6 479.34C1337.26 479.34 1338.59 480.672 1338.59 482.328C1338.59 483.948 1337.26 485.28 1335.6 485.28ZM1268.1 485.28C1266.45 485.28 1265.11 483.948 1265.11 482.328C1265.11 480.672 1266.45 479.34 1268.1 479.34C1269.76 479.34 1271.09 480.672 1271.09 482.328C1271.09 483.948 1269.76 485.28 1268.1 485.28Z" fill="var(--fill-0, #171415)"/>
<path id="&#60;Compound Path&#62;_14" d="M133.559 433.728C133.559 435.348 132.227 436.68 130.571 436.68C128.915 436.68 127.583 435.348 127.583 433.728C127.583 432.072 128.915 430.74 130.571 430.74C132.227 430.74 133.559 432.072 133.559 433.728ZM40.8588 433.728C40.8588 435.348 39.5268 436.68 37.8708 436.68C36.2148 436.68 34.8828 435.348 34.8828 433.728C34.8828 432.072 36.2148 430.74 37.8708 430.74C39.5268 430.74 40.8588 432.072 40.8588 433.728ZM40.8588 501.228C40.8588 502.848 39.5268 504.18 37.8708 504.18C36.2148 504.18 34.8828 502.848 34.8828 501.228C34.8828 499.572 36.2148 498.24 37.8708 498.24C39.5268 498.24 40.8588 499.572 40.8588 501.228ZM40.8588 568.728C40.8588 570.348 39.5268 571.68 37.8708 571.68C36.2148 571.68 34.8828 570.348 34.8828 568.728C34.8828 567.072 36.2148 565.74 37.8708 565.74C39.5268 565.74 40.8588 567.072 40.8588 568.728ZM87.1908 433.728C87.1908 435.348 85.8588 436.68 84.2028 436.68C82.5468 436.68 81.2148 435.348 81.2148 433.728C81.2148 432.072 82.5468 430.74 84.2028 430.74C85.8588 430.74 87.1908 432.072 87.1908 433.728ZM87.1908 501.228C87.1908 502.848 85.8588 504.18 84.2028 504.18C82.5468 504.18 81.2148 502.848 81.2148 501.228C81.2148 499.572 82.5468 498.24 84.2028 498.24C85.8588 498.24 87.1908 499.572 87.1908 501.228ZM87.1908 568.728C87.1908 570.348 85.8588 571.68 84.2028 571.68C82.5468 571.68 81.2148 570.348 81.2148 568.728C81.2148 567.072 82.5468 565.74 84.2028 565.74C85.8588 565.74 87.1908 567.072 87.1908 568.728ZM133.559 501.228C133.559 502.848 132.227 504.18 130.571 504.18C128.915 504.18 127.583 502.848 127.583 501.228C127.583 499.572 128.915 498.24 130.571 498.24C132.227 498.24 133.559 499.572 133.559 501.228ZM133.559 568.728C133.559 570.348 132.227 571.68 130.571 571.68C128.915 571.68 127.583 570.348 127.583 568.728C127.583 567.072 128.915 565.74 130.571 565.74C132.227 565.74 133.559 567.072 133.559 568.728Z" fill="var(--fill-0, #838383)"/>
<path id="&#60;Compound Path&#62;_15" d="M300.493 314.604C298.621 314.604 297.109 313.092 297.109 311.22C297.109 309.348 298.621 307.836 300.493 307.836C302.329 307.836 303.841 309.348 303.841 311.22C303.841 313.092 302.329 314.604 300.493 314.604ZM300.493 335.844C298.621 335.844 297.109 334.332 297.109 332.46C297.109 330.588 298.621 329.076 300.493 329.076C302.329 329.076 303.841 330.588 303.841 332.46C303.841 334.332 302.329 335.844 300.493 335.844ZM300.493 357.084C298.621 357.084 297.109 355.572 297.109 353.7C297.109 351.828 298.621 350.316 300.493 350.316C302.329 350.316 303.841 351.828 303.841 353.7C303.841 355.572 302.329 357.084 300.493 357.084ZM300.493 378.288C298.621 378.288 297.109 376.812 297.109 374.94C297.109 373.068 298.621 371.556 300.493 371.556C302.329 371.556 303.841 373.068 303.841 374.94C303.841 376.812 302.329 378.288 300.493 378.288Z" fill="var(--fill-0, #171415)"/>
<path id="&#60;Compound Path&#62;_16" d="M914.185 595.008C914.185 593.136 915.697 591.624 917.533 591.624C919.405 591.624 920.917 593.136 920.917 595.008C920.917 596.88 919.405 598.392 917.533 598.392C915.697 598.392 914.185 596.88 914.185 595.008ZM892.945 595.008C892.945 593.136 894.457 591.624 896.329 591.624C898.165 591.624 899.677 593.136 899.677 595.008C899.677 596.88 898.165 598.392 896.329 598.392C894.457 598.392 892.945 596.88 892.945 595.008ZM871.705 595.008C871.705 593.136 873.217 591.624 875.089 591.624C876.961 591.624 878.437 593.136 878.437 595.008C878.437 596.88 876.961 598.392 875.089 598.392C873.217 598.392 871.705 596.88 871.705 595.008ZM850.465 595.008C850.465 593.136 851.977 591.624 853.849 591.624C855.721 591.624 857.233 593.136 857.233 595.008C857.233 596.88 855.721 598.392 853.849 598.392C851.977 598.392 850.465 596.88 850.465 595.008Z" fill="var(--fill-0, #171415)"/>
<g id="&#60;Group&#62;_8">
<path id="&#60;Path&#62;_23" d="M729.602 203.145H722.582V164.625H729.602V203.145Z" fill="var(--fill-0, #838383)"/>
<path id="&#60;Path&#62;_24" d="M709.872 203.145H702.852V164.625H709.872V203.145Z" fill="var(--fill-0, #838383)"/>
<path id="&#60;Path&#62;_25" d="M690.145 203.145H683.125V164.625H690.145V203.145Z" fill="var(--fill-0, #838383)"/>
</g>
<g id="&#60;Group&#62;_9">
<path id="&#60;Path&#62;_26" d="M694.223 741.096H687.203V702.576H694.223V741.096Z" fill="var(--fill-0, #171415)"/>
<path id="&#60;Path&#62;_27" d="M674.493 741.096H667.473V702.576H674.493V741.096Z" fill="var(--fill-0, #171415)"/>
<path id="&#60;Path&#62;_28" d="M654.802 741.096H647.746V702.576H654.802V741.096Z" fill="var(--fill-0, #171415)"/>
</g>
<path id="&#60;Path&#62;_29" d="M1317.42 70.5239H1323.21V77.0399H1329.73V82.8359H1323.21V89.3519H1317.42V82.8359H1310.9V77.0399H1317.42V70.5239Z" fill="var(--fill-0, #171415)"/>
<path id="&#60;Path&#62;_30" d="M23.516 592H29.312V598.516H35.828V604.312H29.312V610.864H23.516V604.312H17V598.516H23.516V592Z" fill="var(--fill-0, #838383)"/>
<g id="&#60;Group&#62;_10">
<path id="&#60;Path&#62;_31" d="M481.718 257.976L476.318 263.376L472.322 259.38L468.326 263.376L462.926 257.976L466.922 253.98L462.926 249.984L468.326 244.584L472.322 248.58L476.318 244.584L481.718 249.984L477.722 253.98L481.718 257.976Z" fill="var(--fill-0, #838383)"/>
<path id="&#60;Path&#62;_32" d="M481.718 306.18L476.318 311.58L472.322 307.584L468.326 311.58L462.926 306.18L466.922 302.184L462.926 298.188L468.326 292.788L472.322 296.784L476.318 292.788L481.718 298.188L477.722 302.184L481.718 306.18Z" fill="var(--fill-0, #838383)"/>
<path id="&#60;Path&#62;_33" d="M481.718 354.348L476.318 359.784L472.322 355.788L468.326 359.784L462.926 354.348L466.922 350.388L462.926 346.392L468.326 340.956L472.322 344.952L476.318 340.956L481.718 346.392L477.722 350.388L481.718 354.348Z" fill="var(--fill-0, #838383)"/>
</g>
<g id="&#60;Group&#62;_11">
<path id="&#60;Path&#62;_34" d="M1068.66 117.36L1063.26 111.924L1067.25 107.964L1063.26 103.968L1068.66 98.5322L1072.65 102.528L1076.65 98.5322L1082.09 103.968L1078.09 107.964L1082.09 111.924L1076.65 117.36L1072.65 113.364L1068.66 117.36Z" fill="var(--fill-0, #1A1A1A)"/>
<path id="&#60;Path&#62;_35" d="M1020.49 117.36L1015.05 111.924L1019.05 107.964L1015.05 103.968L1020.49 98.5322L1024.49 102.528L1028.48 98.5322L1033.88 103.968L1029.89 107.964L1033.88 111.924L1028.48 117.36L1024.49 113.364L1020.49 117.36Z" fill="var(--fill-0, #838383)"/>
<path id="&#60;Path&#62;_36" d="M972.287 117.36L966.887 111.924L970.883 107.964L966.887 103.968L972.287 98.5322L976.283 102.528L980.279 98.5322L985.679 103.968L981.683 107.964L985.679 111.924L980.279 117.36L976.283 113.364L972.287 117.36Z" fill="var(--fill-0, #1A1A1A)"/>
</g>
</g>
</svg>
